<svg id="Capa_1" data-name="Capa 1" xmlns="http://www.w3.org/2000/svg" viewBox="0 0 436.9 436.9"><defs><style>.cls-1{fill:#98dc56;}.cls-2{fill:#e5e5e5;}.cls-3{fill:#fff;}.cls-4{fill:#1b224a;}.cls-5{fill:#252d5c;}.cls-6{fill:#c8e6eb;}.cls-7{fill:#823214;}.cls-8{fill:#965028;}.cls-9{fill:#a56941;}</style></defs><title>diploma</title><circle class="cls-1" cx="218.45" cy="218.45" r="218.45"/><path class="cls-2" d="M125.78,359.16a14.56,14.56,0,0,1-14.56-14.56V228.24a14.56,14.56,0,0,1,29.12,0V344.6A14.56,14.56,0,0,1,125.78,359.16Z"/><path class="cls-3" d="M150.38,359.16a14.56,14.56,0,0,1-14.56-14.56V228.24a14.56,14.56,0,0,1,29.11,0V344.6a14.54,14.54,0,0,1-14.54,14.56Z"/><path class="cls-4" d="M166.84,127.4c-1.36-7.43-7.38-12.79-14.38-12.79H127.12c-7,0-13,5.35-14.38,12.79L90.34,249.84a7.12,7.12,0,0,0,1.3,5.59,6.07,6.07,0,0,0,4.81,2.47h86.68a6.07,6.07,0,0,0,4.82-2.47,7.15,7.15,0,0,0,1.29-5.59Z"/><circle class="cls-3" cx="139.79" cy="80.12" r="25.14"/><path class="cls-5" d="M160.08,172.32,132.33,140.1a11.39,11.39,0,0,1,17.26-14.87l23.3,27.05,37.75-8.46a11.4,11.4,0,0,1,5,22.24L171.2,176A11.38,11.38,0,0,1,160.08,172.32Z"/><path class="cls-3" d="M224.25,152.45a11.39,11.39,0,0,0-13.61-8.62h0l-5.85,1.31,5.28,22.17,5.55-1.25A11.4,11.4,0,0,0,224.25,152.45Z"/><path class="cls-3" d="M224.25,152.45a11.39,11.39,0,0,0-13.61-8.62h0l5,22.23A11.41,11.41,0,0,0,224.25,152.45Z"/><path class="cls-6" d="M267.2,181a6.21,6.21,0,0,1-4.63,7.46l-24.7,5.8a6.2,6.2,0,0,1-7.46-4.6v0L222.28,155a6.21,6.21,0,0,1,4.62-7.47h0l24.7-5.79a6.21,6.21,0,0,1,7.47,4.62h0Z"/><path class="cls-3" d="M296,359.16a9.56,9.56,0,0,1-9.56-9.56V273.16a9.56,9.56,0,1,1,19.12,0h0V349.6A9.56,9.56,0,0,1,296,359.16Z"/><path class="cls-3" d="M319.26,359.16a9.56,9.56,0,0,1-9.57-9.55h0V273.16a9.57,9.57,0,0,1,19.13,0V349.6A9.56,9.56,0,0,1,319.26,359.16Z"/><path class="cls-3" d="M366.15,230.88a8,8,0,0,0-11.22-1l-9.36,7.81c-1.15-3.17-2.16-6-3-8.46-3.7-10.76-9.9-16.22-18.42-16.22H295.83l-19.24-10.32-10.7-20.21a8,8,0,1,0-14.75,6.21,9.18,9.18,0,0,0,.66,1.24l11.83,22.36a8,8,0,0,0,3.28,3.3l22.66,12.16-13.56,63c-.55,2.29,1.7,4.22,4.35,4.22H334.9c2.73,0,4.89-2,4.35-4.22l-12.59-58.5c1.15,2.64,1.25,4,7.91,21.56a8,8,0,0,0,10.34,4.6,8.14,8.14,0,0,0,2.22-1.3l18-15A8,8,0,0,0,366.15,230.88Z"/><path class="cls-5" d="M354.93,229.86l-9.36,7.81q-1.74-4.75-3-8.46c-3.7-10.76-9.9-16.22-18.43-16.22h-8.57c0,4.17-2.7,8.33-8.07,8.33s-8.06-4.16-8.08-8.33h-3.59L276.6,202.67l-10.7-20.21-14.09,7.45,11.83,22.36a8,8,0,0,0,3.28,3.3l22.66,12.15-13.56,63c-.56,2.29,1.69,4.22,4.34,4.22H334.9c2.72,0,4.89-2,4.35-4.22l-12.59-58.5c1.15,2.64,1.25,4,7.91,21.56a8,8,0,0,0,10.34,4.6,8.14,8.14,0,0,0,2.22-1.3l18-15Z"/><circle class="cls-3" cx="307.63" cy="187.89" r="19.32"/><path class="cls-7" d="M319.45,213.09c-3.36,9.29-15.15,35.22-44.88,45.78l2.71,7.64a81,81,0,0,0,40.94-32.81,86.1,86.1,0,0,0,9.71-20.38,1.23,1.23,0,0,0-.8-1.54,1.21,1.21,0,0,0-.38-.06h-5.36A2.06,2.06,0,0,0,319.45,213.09Z"/><path class="cls-8" d="M279.5,292a2.24,2.24,0,0,1-2.61,1.78L264,291.33a2.21,2.21,0,0,1-1.79-2.56v0l6.06-32.11a2.21,2.21,0,0,1,2.58-1.78h0l12.87,2.43a2.21,2.21,0,0,1,1.78,2.58v0Z"/><path class="cls-9" d="M265.43,262l-.52,2.82a2.3,2.3,0,0,0,1.83,2.66l6.49,1.19,1.34-7.31-6.48-1.19a2.28,2.28,0,0,0-2.66,1.82Z"/></svg>