<svg id="Layer_1" data-name="Layer 1" xmlns="http://www.w3.org/2000/svg" viewBox="0 0 496.16 496.15"><defs><style>.cls-1{fill:#98dc56;}.cls-2{fill:#fff;}</style></defs><title>heart</title><path class="cls-1" d="M0,248.09C0,111.06,111.07,0,248.07,0S496.16,111.06,496.16,248.09,385.09,496.16,248.07,496.16,0,385.09,0,248.09Z" transform="translate(0 0)"/><path class="cls-2" d="M374.12,155.15a89.12,89.12,0,0,0-126,0h0a89.11,89.11,0,0,0-126,0c-34.8,34.8-29.78,86.84,0,126,31.54,41.49,89.13,109.94,126,109.94h0c36.9,0,94.49-68.45,126-109.94C403.9,242,408.92,190,374.12,155.15Z" transform="translate(0 0)"/></svg>