<svg id="Layer_1" data-name="Layer 1" xmlns="http://www.w3.org/2000/svg" viewBox="0 0 323.81 77.48"><defs><style>.cls-1{fill:#88b337;}.cls-2{fill:#6a9923;}.cls-3{fill:#618c20;}</style></defs><title>Untitled-1</title><path class="cls-1" d="M5.34,5.83H27.16q17.64,0,17.64,12a19.8,19.8,0,0,1-1,7,10.78,10.78,0,0,1-4,4.61,10.14,10.14,0,0,1,4.86,3.71C45.58,34.55,46,37,46,40.39q0,13.68-18.57,13.68H5.34Zm20.38,11H22.05v7.7h3.74a4,4,0,0,0,3-.94,4.28,4.28,0,0,0,.87-3,3.81,3.81,0,0,0-.94-2.92A4.34,4.34,0,0,0,25.72,16.85ZM25.93,35H22.05v7.92h3.88c1.68,0,2.81-.28,3.39-.83A4.27,4.27,0,0,0,30.18,39a4.21,4.21,0,0,0-.93-3.14A5,5,0,0,0,25.93,35Z" transform="translate(-5.34 -4.39)"/><path class="cls-1" d="M49.05,54.07V5.83h16.7V54.07Z" transform="translate(-5.34 -4.39)"/><path class="cls-1" d="M102.47,54.07H70.07V5.83h16.7V40.46h15.7Z" transform="translate(-5.34 -4.39)"/><path class="cls-1" d="M137.68,54.07h-32.4V5.83H122V40.46h15.7Z" transform="translate(-5.34 -4.39)"/><path class="cls-1" d="M156.33,5.83V37.44a3.63,3.63,0,0,0,1,3,5.48,5.48,0,0,0,3.49.86,5.36,5.36,0,0,0,3.46-.86,3.73,3.73,0,0,0,1-3V5.83H182V36.5q0,10.23-5.11,14.37T160.83,55q-11,0-16.1-4t-5.11-14.18v-31Z" transform="translate(-5.34 -4.39)"/><path class="cls-1" d="M186.06,54.07V5.83H210.9l3.74,18.43,3.1-18.43H243.3V54.07H226.6V29.23h-.8l-4.17,24.34h-14l-4.1-24.34h-.8V54.07Z" transform="translate(-5.34 -4.39)"/><path class="cls-2" d="M292.48,42.49a11.3,11.3,0,0,0-5-9.36,9.86,9.86,0,0,0-7.71-16l-.43,0a9.87,9.87,0,1,0-18.9,0l-.42,0a9.86,9.86,0,0,0-7.71,16,11.29,11.29,0,0,0-3.07,15.67,11.6,11.6,0,0,0,3.07,3.06,9.86,9.86,0,0,0,7.71,16h19.75a9.86,9.86,0,0,0,7.71-16A11.31,11.31,0,0,0,292.48,42.49Z" transform="translate(-5.34 -4.39)"/><path class="cls-3" d="M280.8,34.5a1.51,1.51,0,0,0-2,0L271.32,41V22.61a1.42,1.42,0,0,0-2.82,0v9.06l-6.41-5.81a1.51,1.51,0,0,0-2,0,1.18,1.18,0,0,0,0,1.77l8.4,7.62V52.76l-6.05-5.49a1.53,1.53,0,0,0-2,0,1.2,1.2,0,0,0,0,1.78l8.05,7.29V80.13a1.42,1.42,0,0,0,2.82,0V44.58l9.45-8.27a1.2,1.2,0,0,0,0-1.81Z" transform="translate(-5.34 -4.39)"/><path class="cls-2" d="M329.15,42.49a11.25,11.25,0,0,0-5-9.36,9.86,9.86,0,0,0-7.71-16l-.42,0a9.87,9.87,0,1,0-18.9,0c-.15,0-.29,0-.43,0a9.87,9.87,0,0,0-7.71,16,11.29,11.29,0,0,0-3.06,15.67A11.42,11.42,0,0,0,289,51.86a9.86,9.86,0,0,0,7.71,16h19.75a9.86,9.86,0,0,0,7.71-16,11.26,11.26,0,0,0,5-9.37Z" transform="translate(-5.34 -4.39)"/><path class="cls-3" d="M317.46,34.49a1.52,1.52,0,0,0-2,0L308,41.26V22.61a1.42,1.42,0,0,0-2.82,0v9.06l-6.41-5.81a1.52,1.52,0,0,0-2,0,1.18,1.18,0,0,0,0,1.77l8.41,7.62V52.76l-6.06-5.49a1.52,1.52,0,0,0-2,0,1.2,1.2,0,0,0,0,1.78l8.05,7.29V80.13a1.42,1.42,0,0,0,2.82,0V44.78a1.22,1.22,0,0,0,.29-.17l9.17-8.31a1.2,1.2,0,0,0,0-1.81Z" transform="translate(-5.34 -4.39)"/><path class="cls-1" d="M310.82,42.49a11.3,11.3,0,0,0-5-9.36,9.87,9.87,0,0,0-7.72-16l-.42,0a9.87,9.87,0,1,0-18.9,0l-.42,0a9.87,9.87,0,0,0-7.72,16A11.29,11.29,0,0,0,267.6,48.8a11.42,11.42,0,0,0,3.06,3.06,9.86,9.86,0,0,0,7.72,16h19.74a9.86,9.86,0,0,0,7.72-16A11.31,11.31,0,0,0,310.82,42.49Z" transform="translate(-5.34 -4.39)"/><path class="cls-2" d="M299.12,34.49a1.51,1.51,0,0,0-2,0l-7.47,6.77V22.61a1.42,1.42,0,0,0-2.82,0v9.06l-6.41-5.81a1.51,1.51,0,0,0-2,0,1.18,1.18,0,0,0,0,1.77l8.4,7.62V52.76l-6.06-5.49a1.52,1.52,0,0,0-2,0,1.2,1.2,0,0,0,0,1.78l8,7.29V80.13a1.42,1.42,0,0,0,2.82,0V44.78a1.22,1.22,0,0,0,.29-.17l9.17-8.31a1.2,1.2,0,0,0,0-1.81Z" transform="translate(-5.34 -4.39)"/><path class="cls-3" d="M117,81.41V57.29H134.4v6.8h-9V68h6.88v6.8h-6.88v6.63Z" transform="translate(-5.34 -4.39)"/><path class="cls-3" d="M143.76,81.41H135.7V63.23h8.06v1.69c1.51-1.44,2.78-2.16,3.82-2.16v7.49a7.5,7.5,0,0,0-3.17,1l-.65.32Z" transform="translate(-5.34 -4.39)"/><path class="cls-3" d="M148.91,62.07v-5.5H157v5.5Zm0,19.34V63.23H157V81.41Z" transform="translate(-5.34 -4.39)"/><path class="cls-3" d="M174.47,69.35q-4.47-.51-6.09-.51c-1.08,0-1.62.1-1.62.29s.94.32,2.83.52a6.71,6.71,0,0,1,4.12,1.62c.87.88,1.3,2.37,1.3,4.48a5.46,5.46,0,0,1-2,4.65q-2,1.47-6,1.47a37.08,37.08,0,0,1-4.32-.23,21.36,21.36,0,0,1-3-.49l-.93-.25.18-5.43a55.65,55.65,0,0,0,6.21.61q1.74,0,1.74-.33a9.25,9.25,0,0,0-2.84-.55A6.89,6.89,0,0,1,160,73.5a5.73,5.73,0,0,1-1.28-4.12c0-2.45.7-4.16,2.11-5.15a10.3,10.3,0,0,1,5.95-1.47,29.61,29.61,0,0,1,7,.72l1,.21Z" transform="translate(-5.34 -4.39)"/><path class="cls-3" d="M184.69,81.41h-8.06V56.57h8.06V69.06h1.05l1.62-5.83h7.95L192.72,72l2.81,9.4h-8.07l-1.69-5.33h-1.08Z" transform="translate(-5.34 -4.39)"/><path class="cls-3" d="M197.85,65c1.6-1.5,4-2.25,7.22-2.25s5.62.75,7.22,2.25,2.39,3.94,2.39,7.32-.8,5.82-2.39,7.31-4,2.23-7.22,2.23-5.62-.74-7.22-2.23-2.39-3.92-2.39-7.31S196.25,66.51,197.85,65Zm6.07,9.7a1.16,1.16,0,0,0,1.15.65,1.18,1.18,0,0,0,1.15-.65,5.93,5.93,0,0,0,.32-2.39,6,6,0,0,0-.32-2.4,1.18,1.18,0,0,0-1.15-.65,1.16,1.16,0,0,0-1.15.65,5.91,5.91,0,0,0-.33,2.4A5.89,5.89,0,0,0,203.92,74.71Z" transform="translate(-5.34 -4.39)"/><path class="cls-3" d="M216.23,81.41V56.57h8.06V81.41Z" transform="translate(-5.34 -4.39)"/><path class="cls-3" d="M233.9,74.67q0,1.26,1.62,1.26,3.6,0,7.2-.21l1.41-.11.18,5.22a44.36,44.36,0,0,1-9.53,1q-4.72,0-6.83-2.17t-2.11-7.06q0-4.87,2.27-7.38t7.07-2.5q4.81,0,7.15,2.05t2.34,6.3l-.36,3.56Zm2.7-4.39a2.67,2.67,0,0,0-.3-1.47,1.22,1.22,0,0,0-1.06-.44,1.16,1.16,0,0,0-1.05.44,2.93,2.93,0,0,0-.32,1.47Z" transform="translate(-5.34 -4.39)"/></svg>