<svg id="Capa_1" data-name="Capa 1" xmlns="http://www.w3.org/2000/svg" viewBox="0 0 436.91 436.91"><defs><style>.cls-1{fill:#98dc56;}.cls-2{fill:#aaa;}.cls-3{fill:#545950;}.cls-4{fill:#ebf0f3;}.cls-5{fill:#393f2d;}.cls-6{fill:#383838;}.cls-7{fill:#fcfcfc;}</style></defs><title>teaching</title><circle class="cls-1" cx="218.45" cy="218.45" r="218.45"/><path class="cls-2" d="M301.2,129.37H73a5.21,5.21,0,0,0-4.93,5.45V279.28A5.21,5.21,0,0,0,73,284.73H301.2a5.2,5.2,0,0,0,4.93-5.45V134.82A5.2,5.2,0,0,0,301.2,129.37Z"/><rect class="cls-3" x="81" y="138.18" width="212.23" height="129.73"/><path class="cls-4" d="M122.44,197.85l-3-7.75H105.82l-3,7.75H95.1l14-35.9h7l14,35.9Zm-9.79-25.21-4.09,10.42h8.13Z"/><path class="cls-4" d="M148.12,197.85H133.91V162h12.63a16.67,16.67,0,0,1,5.69.88,8,8,0,0,1,3.59,2.36,9.85,9.85,0,0,1,2.19,6.26q0,4.22-2.47,6.27a9,9,0,0,1-1.15.9l-1.17.59a8.35,8.35,0,0,1,4.81,3,9,9,0,0,1,1.79,5.68,10.23,10.23,0,0,1-2.33,6.62Q154.8,197.86,148.12,197.85Zm-7-21.36h3.44a10.63,10.63,0,0,0,4.48-.72c1-.48,1.46-1.52,1.46-3.11s-.45-2.64-1.34-3.15a9.68,9.68,0,0,0-4.55-.78h-3.49v7.76Zm0,14.58h5a10.13,10.13,0,0,0,4.67-.84c1-.57,1.55-1.68,1.55-3.34s-.55-2.76-1.65-3.29a12.85,12.85,0,0,0-5.26-.79h-4.28v8.26Z"/><path class="cls-4" d="M180.8,190.76a10.34,10.34,0,0,0,8.73-4.67l4.65,5.29q-5.53,6.88-13,6.88A16.06,16.06,0,0,1,168.8,193,18.72,18.72,0,0,1,164,179.8a18.92,18.92,0,0,1,4.94-13.33,15.86,15.86,0,0,1,12.1-5.34q8,0,13.37,6.73l-4.5,5.65q-3.44-4.72-8.55-4.72a9.42,9.42,0,0,0-7,3,10.85,10.85,0,0,0-2.91,8,11.53,11.53,0,0,0,2.74,8A8.63,8.63,0,0,0,180.8,190.76Z"/><path class="cls-4" d="M224.68,166.65q4.63,4.71,4.64,13.07T224.8,193q-4.53,4.88-13.82,4.88H199.89V162h11.46Q220,162,224.68,166.65ZM219.36,188c1.78-1.85,2.67-4.53,2.67-8.06s-.89-6.24-2.67-8.14-4.51-2.85-8.19-2.85h-4v21.83h4.6C215,190.76,217.58,189.84,219.36,188Z"/><rect class="cls-5" x="55.9" y="276.8" width="260.64" height="14.92"/><path class="cls-6" d="M212,241.73a2.64,2.64,0,0,1-2.3-1.34L189.05,203.5a2.63,2.63,0,1,1,4.59-2.58l20.69,36.89a2.64,2.64,0,0,1-1,3.59A2.72,2.72,0,0,1,212,241.73Z"/><circle class="cls-7" cx="316.94" cy="220.66" r="28.96"/><path class="cls-7" d="M323.08,249.62H310a57.93,57.93,0,0,0-57.93,57.92H381A57.92,57.92,0,0,0,323.08,249.62Z"/><path class="cls-7" d="M271.8,287.35H247.59a28.91,28.91,0,0,1-24.77-14.12l-19.91-33.62A8.78,8.78,0,1,1,218,230.67l19.9,33.62a11.29,11.29,0,0,0,9.67,5.51H271.8a8.78,8.78,0,0,1,0,17.55Z"/></svg>